HIERARCHY
ROOT mixamorig:Hips
{
	OFFSET -0.000008 104.274872 1.554316
	CHANNELS 6 Xposition Yposition Zposition Xrotation Yrotation Zrotation
	JOINT mixamorig:Spine
	{
		OFFSET -0.000005 10.181595 0.131521
		CHANNELS 6 Xposition Yposition Zposition Xrotation Yrotation Zrotation
		JOINT mixamorig:Spine1
		{
			OFFSET -0.000000 9.893959 -1.470711
			CHANNELS 6 Xposition Yposition Zposition Xrotation Yrotation Zrotation
			JOINT mixamorig:Spine2
			{
				OFFSET -0.000000 9.220757 -1.370642
				CHANNELS 3 Xrotation Yrotation Zrotation
				JOINT mixamorig:Neck
				{
					OFFSET 0.000001 16.740417 -2.049038
					CHANNELS 6 Xposition Yposition Zposition Xrotation Yrotation Zrotation
					JOINT mixamorig:Head
					{
						OFFSET 0.000000 9.617874 1.685009
						CHANNELS 6 Xposition Yposition Zposition Xrotation Yrotation Zrotation
						JOINT mixamorig:HeadTop_End
						{
							OFFSET 0.000002 22.037384 7.501098
							CHANNELS 6 Xposition Yposition Zposition Xrotation Yrotation Zrotation
							End Site
							{
								OFFSET 0.000002 23.106583 -2.828261
							}
						}
					}
				}
				JOINT mixamorig:RightShoulder
				{
					OFFSET -4.569969 11.014923 -2.160886
					CHANNELS 6 Xposition Yposition Zposition Xrotation Yrotation Zrotation
					JOINT mixamorig:RightArm
					{
						OFFSET -10.592850 -0.524811 -2.232100
						CHANNELS 3 Xrotation Yrotation Zrotation
						JOINT mixamorig:RightForeArm
						{
							OFFSET -27.841520 0.000015 -0.000005
							CHANNELS 6 Xposition Yposition Zposition Xrotation Yrotation Zrotation
							JOINT mixamorig:RightHand
							{
								OFFSET -28.328838 -0.000015 0.000018
								CHANNELS 6 Xposition Yposition Zposition Xrotation Yrotation Zrotation
								JOINT mixamorig:RightHandThumb1
								{
									OFFSET -2.464806 -1.573990 2.681853
									CHANNELS 6 Xposition Yposition Zposition Xrotation Yrotation Zrotation
									JOINT mixamorig:RightHandThumb2
									{
										OFFSET -3.215195 -1.872772 1.924282
										CHANNELS 6 Xposition Yposition Zposition Xrotation Yrotation Zrotation
										JOINT mixamorig:RightHandThumb3
										{
											OFFSET -2.654823 -1.527985 1.512609
											CHANNELS 6 Xposition Yposition Zposition Xrotation Yrotation Zrotation
											JOINT mixamorig:RightHandThumb4
											{
												OFFSET -2.018822 -1.152008 1.108055
												CHANNELS 3 Xrotation Yrotation Zrotation
												End Site
												{
													OFFSET -1.888100 -1.145340 1.324313
												}
											}
										}
									}
								}
								JOINT mixamorig:RightHandIndex1
								{
									OFFSET -9.108284 -0.517868 2.259835
									CHANNELS 6 Xposition Yposition Zposition Xrotation Yrotation Zrotation
									JOINT mixamorig:RightHandIndex2
									{
										OFFSET -3.699997 0.000000 0.001215
										CHANNELS 3 Xrotation Yrotation Zrotation
										JOINT mixamorig:RightHandIndex3
										{
											OFFSET -2.850014 0.000031 -0.000522
											CHANNELS 3 Xrotation Yrotation Zrotation
											JOINT mixamorig:RightHandIndex4
											{
												OFFSET -2.772179 -0.000015 -0.000019
												CHANNELS 3 Xrotation Yrotation Zrotation
												End Site
												{
													OFFSET -2.772186 0.000000 -0.000502
												}
											}
										}
									}
								}
								JOINT mixamorig:RightHandMiddle1
								{
									OFFSET -9.532509 -0.000046 -0.000025
									CHANNELS 6 Xposition Yposition Zposition Xrotation Yrotation Zrotation
									JOINT mixamorig:RightHandMiddle2
									{
										OFFSET -3.700012 0.000000 0.003713
										CHANNELS 3 Xrotation Yrotation Zrotation
										JOINT mixamorig:RightHandMiddle3
										{
											OFFSET -2.949989 0.000015 -0.002054
											CHANNELS 3 Xrotation Yrotation Zrotation
											JOINT mixamorig:RightHandMiddle4
											{
												OFFSET -2.946625 0.000000 -0.000154
												CHANNELS 3 Xrotation Yrotation Zrotation
												End Site
												{
													OFFSET -2.946632 0.000015 -0.001136
												}
											}
										}
									}
								}
								JOINT mixamorig:RightHandRing1
								{
									OFFSET -9.103600 -0.043076 -1.865135
									CHANNELS 6 Xposition Yposition Zposition Xrotation Yrotation Zrotation
									JOINT mixamorig:RightHandRing2
									{
										OFFSET -3.379272 0.000000 -0.001054
										CHANNELS 3 Xrotation Yrotation Zrotation
										JOINT mixamorig:RightHandRing3
										{
											OFFSET -2.889694 0.000015 0.000379
											CHANNELS 3 Xrotation Yrotation Zrotation
											JOINT mixamorig:RightHandRing4
											{
												OFFSET -2.638809 0.000000 0.000941
												CHANNELS 3 Xrotation Yrotation Zrotation
												End Site
												{
													OFFSET -2.638802 0.000000 0.005160
												}
											}
										}
									}
								}
								JOINT mixamorig:RightHandPinky1
								{
									OFFSET -8.076675 -0.486710 -3.806280
									CHANNELS 6 Xposition Yposition Zposition Xrotation Yrotation Zrotation
									JOINT mixamorig:RightHandPinky2
									{
										OFFSET -3.600006 -0.000031 -0.003747
										CHANNELS 3 Xrotation Yrotation Zrotation
										JOINT mixamorig:RightHandPinky3
										{
											OFFSET -2.099976 -0.000015 -0.005740
											CHANNELS 3 Xrotation Yrotation Zrotation
											JOINT mixamorig:RightHandPinky4
											{
												OFFSET -2.115776 -0.000031 -0.003680
												CHANNELS 3 Xrotation Yrotation Zrotation
												End Site
												{
													OFFSET -2.115776 -0.000015 -0.003507
												}
											}
										}
									}
								}
							}
						}
					}
				}
				JOINT mixamorig:LeftShoulder
				{
					OFFSET 4.570447 11.014725 -2.160858
					CHANNELS 6 Xposition Yposition Zposition Xrotation Yrotation Zrotation
					JOINT mixamorig:LeftArm
					{
						OFFSET 10.592371 -0.524597 -2.232121
						CHANNELS 3 Xrotation Yrotation Zrotation
						JOINT mixamorig:LeftForeArm
						{
							OFFSET 27.841520 -0.000015 0.000023
							CHANNELS 3 Xrotation Yrotation Zrotation
							JOINT mixamorig:LeftHand
							{
								OFFSET 28.328835 -0.000046 0.000017
								CHANNELS 6 Xposition Yposition Zposition Xrotation Yrotation Zrotation
								JOINT mixamorig:LeftHandThumb1
								{
									OFFSET 2.466141 -1.576187 2.681734
									CHANNELS 6 Xposition Yposition Zposition Xrotation Yrotation Zrotation
									JOINT mixamorig:LeftHandThumb2
									{
										OFFSET 3.217804 -1.872055 1.916487
										CHANNELS 6 Xposition Yposition Zposition Xrotation Yrotation Zrotation
										JOINT mixamorig:LeftHandThumb3
										{
											OFFSET 2.656021 -1.528809 1.514508
											CHANNELS 6 Xposition Yposition Zposition Xrotation Yrotation Zrotation
											JOINT mixamorig:LeftHandThumb4
											{
												OFFSET 2.020889 -1.154068 1.115132
												CHANNELS 6 Xposition Yposition Zposition Xrotation Yrotation Zrotation
												End Site
												{
													OFFSET 1.908852 -1.150833 1.300490
												}
											}
										}
									}
								}
								JOINT mixamorig:LeftHandIndex1
								{
									OFFSET 9.109306 -0.518036 2.259871
									CHANNELS 6 Xposition Yposition Zposition Xrotation Yrotation Zrotation
									JOINT mixamorig:LeftHandIndex2
									{
										OFFSET 3.699997 -0.000015 -0.000323
										CHANNELS 3 Xrotation Yrotation Zrotation
										JOINT mixamorig:LeftHandIndex3
										{
											OFFSET 2.850006 -0.000015 0.000350
											CHANNELS 3 Xrotation Yrotation Zrotation
											JOINT mixamorig:LeftHandIndex4
											{
												OFFSET 2.774857 -0.000015 -0.000027
												CHANNELS 3 Xrotation Yrotation Zrotation
												End Site
												{
													OFFSET 2.774864 0.000000 -0.000099
												}
											}
										}
									}
								}
								JOINT mixamorig:LeftHandMiddle1
								{
									OFFSET 9.533401 0.000031 0.000044
									CHANNELS 6 Xposition Yposition Zposition Xrotation Yrotation Zrotation
									JOINT mixamorig:LeftHandMiddle2
									{
										OFFSET 3.699997 0.000000 -0.000231
										CHANNELS 3 Xrotation Yrotation Zrotation
										JOINT mixamorig:LeftHandMiddle3
										{
											OFFSET 2.949997 -0.000015 -0.000059
											CHANNELS 3 Xrotation Yrotation Zrotation
											JOINT mixamorig:LeftHandMiddle4
											{
												OFFSET 2.952866 0.000000 0.000062
												CHANNELS 3 Xrotation Yrotation Zrotation
												End Site
												{
													OFFSET 2.952858 0.000000 0.000228
												}
											}
										}
									}
								}
								JOINT mixamorig:LeftHandRing1
								{
									OFFSET 9.104530 -0.043030 -1.865075
									CHANNELS 6 Xposition Yposition Zposition Xrotation Yrotation Zrotation
									JOINT mixamorig:LeftHandRing2
									{
										OFFSET 3.150009 0.000000 0.000042
										CHANNELS 3 Xrotation Yrotation Zrotation
										JOINT mixamorig:LeftHandRing3
										{
											OFFSET 2.949989 -0.000015 0.000040
											CHANNELS 3 Xrotation Yrotation Zrotation
											JOINT mixamorig:LeftHandRing4
											{
												OFFSET 2.644318 -0.000015 0.000056
												CHANNELS 6 Xposition Yposition Zposition Xrotation Yrotation Zrotation
												End Site
												{
													OFFSET 2.644318 0.000000 0.000120
												}
											}
										}
									}
								}
								JOINT mixamorig:LeftHandPinky1
								{
									OFFSET 8.077782 -0.486877 -3.806258
									CHANNELS 6 Xposition Yposition Zposition Xrotation Yrotation Zrotation
									JOINT mixamorig:LeftHandPinky2
									{
										OFFSET 3.599960 0.000031 0.014726
										CHANNELS 3 Xrotation Yrotation Zrotation
										JOINT mixamorig:LeftHandPinky3
										{
											OFFSET 2.099998 0.000031 0.007705
											CHANNELS 3 Xrotation Yrotation Zrotation
											JOINT mixamorig:LeftHandPinky4
											{
												OFFSET 2.125504 0.000000 0.007515
												CHANNELS 3 Xrotation Yrotation Zrotation
												End Site
												{
													OFFSET 2.125511 0.000015 0.006257
												}
											}
										}
									}
								}
							}
						}
					}
				}
			}
		}
	}
	JOINT mixamorig:RightUpLeg
	{
		OFFSET -8.207787 -6.751663 -1.599560
		CHANNELS 6 Xposition Yposition Zposition Xrotation Yrotation Zrotation
		JOINT mixamorig:RightLeg
		{
			OFFSET -0.000001 -44.370129 0.345939
			CHANNELS 3 Xrotation Yrotation Zrotation
			JOINT mixamorig:RightFoot
			{
				OFFSET 0.000001 -44.423679 -3.043537
				CHANNELS 3 Xrotation Yrotation Zrotation
				JOINT mixamorig:RightToeBase
				{
					OFFSET -0.000003 -8.728673 10.710563
					CHANNELS 6 Xposition Yposition Zposition Xrotation Yrotation Zrotation
					JOINT mixamorig:RightToe_End
					{
						OFFSET -0.000002 -0.000676 9.278122
						CHANNELS 6 Xposition Yposition Zposition Xrotation Yrotation Zrotation
						End Site
						{
							OFFSET -0.000003 -0.000676 9.278122
						}
					}
				}
			}
		}
	}
	JOINT mixamorig:LeftUpLeg
	{
		OFFSET 8.207791 -6.751694 -1.599555
		CHANNELS 6 Xposition Yposition Zposition Xrotation Yrotation Zrotation
		JOINT mixamorig:LeftLeg
		{
			OFFSET -0.000002 -44.370033 0.346957
			CHANNELS 3 Xrotation Yrotation Zrotation
			JOINT mixamorig:LeftFoot
			{
				OFFSET 0.000000 -44.423672 -3.044393
				CHANNELS 3 Xrotation Yrotation Zrotation
				JOINT mixamorig:LeftToeBase
				{
					OFFSET -0.000003 -8.728668 10.710562
					CHANNELS 6 Xposition Yposition Zposition Xrotation Yrotation Zrotation
					JOINT mixamorig:LeftToe_End
					{
						OFFSET -0.000003 -0.000676 9.278135
						CHANNELS 6 Xposition Yposition Zposition Xrotation Yrotation Zrotation
						End Site
						{
							OFFSET -0.000003 -0.000677 9.278135
						}
					}
				}
			}
		}
	}
}
MOTION
Frames: 4
Frame Time: 0.033333
-0.182365 79.254692 0.804972 -11.997191 -1.876859 -3.325002 -0.000005 10.181602 0.131522 19.358213 0.115055 1.530279 0.000000 9.893970 -1.470713 6.933036 -0.093602 0.595819 6.932877 -0.094801 0.597717 0.000002 16.740416 -2.049036 0.219581 -0.077940 3.134709 -0.000000 9.617875 1.685006 -1.238393 5.856619 -9.158880 0.000001 22.037338 7.501101 -0.000001 -0.000000 0.000000 -4.569969 11.014950 -2.160891 0.150905 9.612151 9.551683 -26.848471 23.110652 70.057011 -27.841522 0.000007 -0.000001 -0.000007 46.216369 -0.000028 -28.328825 0.000010 0.000030 39.728874 -0.253351 -39.076540 -2.464805 -1.573985 2.681852 4.724119 2.845713 3.393382 -3.215199 -1.872789 1.924284 18.380497 -15.144432 5.492718 -2.654821 -1.528001 1.512609 -5.316505 -1.600800 -3.676899 -0.000002 0.000004 -0.000000 -9.108272 -0.517847 2.259840 0.630422 -3.004819 31.879700 0.265744 -1.888966 15.947097 0.004851 -0.270286 2.135420 0.000001 -0.000003 0.000004 -9.532518 -0.000003 -0.000025 0.982534 -4.278915 16.701616 0.800051 -3.186152 28.036972 0.025941 0.561515 -4.916351 -0.000001 0.000001 -0.000001 -9.103597 -0.043061 -1.865134 0.969444 -4.343917 15.955153 0.238945 -1.828596 14.972424 0.003732 0.237048 -2.051195 -0.000001 0.000001 0.000002 -8.076685 -0.486703 -3.806283 2.479839 -10.255941 14.373816 0.040920 -0.830579 7.622355 -0.000694 -0.162096 0.863088 0.000003 -0.000002 0.000000 4.570447 11.014721 -2.160858 0.592264 -2.755665 -10.292488 -33.996160 -24.964418 -70.983472 -0.000050 -33.231213 -0.000019 28.328829 -0.000044 0.000033 41.856840 -9.488802 49.054296 2.466125 -1.576216 2.681738 2.715573 3.713836 2.491105 3.217789 -1.872076 1.916489 5.422197 7.556502 -3.402822 2.656016 -1.528805 1.514503 0.967447 17.846408 -3.373884 2.020891 -1.154073 1.115138 0.000003 0.000000 -0.000007 9.109295 -0.518051 2.259875 -1.621929 -4.343872 -17.243093 1.144664 3.811765 -33.402661 0.003025 -0.211265 1.687850 0.000006 0.000003 0.000001 9.533407 0.000016 0.000046 -0.391945 -1.733895 -9.770738 1.067229 3.690746 -32.285304 0.066179 -0.953022 7.943104 0.000002 0.000001 0.000000 9.104527 -0.043048 -1.865074 0.280028 2.046629 -11.909016 0.312354 2.053409 -17.284072 0.066253 -0.955428 7.943114 2.644312 0.000015 0.000061 -0.000000 -0.000000 -0.000001 8.077774 -0.486876 -3.806259 1.858122 11.348132 -9.243045 0.295229 -2.281517 -15.642528 0.010101 0.214649 -1.843571 0.000000 0.000001 0.000001 -8.207787 -6.751662 -1.599572 -50.958293 -2.721466 -8.157249 54.161628 3.562849 0.299072 6.742131 -0.036425 4.390875 -0.000002 -8.728667 10.710562 0.113155 -0.000005 0.000002 -0.000001 -0.000676 9.278124 0.000000 0.000001 -0.000000 8.207792 -6.751705 -1.599547 -52.620576 1.541906 8.358153 54.197872 -2.386109 4.178876 9.418737 -0.004837 -3.923535 -0.000001 -8.728666 10.710561 -3.373866 0.000000 -0.000001 -0.000003 -0.000678 9.278135 0.000003 0.000000 -0.000000 
-0.175400 79.251396 0.803989 -12.008223 -1.875960 -3.348493 -0.000004 10.181583 0.131526 19.366525 0.107193 1.520311 0.000000 9.893956 -1.470711 6.936554 -0.097118 0.589474 6.936384 -0.098720 0.591423 0.000001 16.740416 -2.049031 0.261337 -0.065597 3.095880 0.000002 9.617874 1.685009 -1.211308 5.881055 -9.189165 0.000002 22.037369 7.501099 -0.000001 -0.000000 0.000000 -4.569970 11.014894 -2.160882 0.150341 9.608254 9.555776 -26.825694 23.328262 69.971736 -27.841518 0.000009 0.000005 0.000002 46.101485 -0.000015 -28.328836 0.000014 0.000030 39.562303 -0.189067 -39.295639 -2.464806 -1.573961 2.681851 4.724129 2.845747 3.393387 -3.215212 -1.872773 1.924276 18.380502 -15.144433 5.492724 -2.654833 -1.528010 1.512607 -5.316508 -1.600790 -3.676897 -0.000003 -0.000001 -0.000002 -9.108276 -0.517850 2.259830 0.630443 -3.004868 31.880021 0.265777 -1.888980 15.947395 0.004833 -0.270337 2.135723 -0.000000 0.000001 -0.000000 -9.532506 0.000002 -0.000027 0.982541 -4.278924 16.701933 0.800075 -3.186186 28.037281 0.025963 0.561477 -4.916072 0.000001 -0.000001 0.000001 -9.103601 -0.043071 -1.865140 0.969495 -4.343966 15.955645 0.238958 -1.828651 14.972897 0.003750 0.237002 -2.050734 -0.000002 0.000002 0.000000 -8.076677 -0.486699 -3.806283 2.479949 -10.255992 14.374459 0.040942 -0.830663 7.622972 -0.000707 -0.162158 0.863741 0.000004 0.000001 0.000001 4.570449 11.014715 -2.160853 0.592287 -2.754044 -10.297453 -33.999763 -25.003173 -70.983813 -0.000076 -33.265337 -0.000054 28.328838 -0.000048 0.000020 41.833034 -9.446141 48.974345 2.466133 -1.576216 2.681731 2.715574 3.713841 2.491105 3.217801 -1.872069 1.916491 5.422198 7.556506 -3.402820 2.656019 -1.528791 1.514499 0.967451 17.846419 -3.373881 2.020899 -1.154068 1.115134 0.000001 0.000000 -0.000007 9.109295 -0.518046 2.259873 -1.621933 -4.343872 -17.243091 1.144664 3.811765 -33.402658 0.003027 -0.211270 1.687848 -0.000000 0.000004 -0.000002 9.533417 0.000001 0.000042 -0.391941 -1.733895 -9.770738 1.067228 3.690747 -32.285307 0.066182 -0.953019 7.943104 0.000001 -0.000000 0.000002 9.104537 -0.043045 -1.865076 0.280026 2.046630 -11.909016 0.312353 2.053409 -17.284075 0.066251 -0.955428 7.943113 2.644314 0.000014 0.000060 -0.000000 0.000000 -0.000001 8.077785 -0.486862 -3.806256 1.858124 11.348132 -9.243044 0.295227 -2.281517 -15.642527 0.010091 0.214651 -1.843574 -0.000001 0.000001 -0.000000 -8.207788 -6.751673 -1.599563 -50.944219 -2.733132 -8.146107 54.156403 3.560299 0.304255 6.749892 -0.035321 4.393133 -0.000003 -8.728672 10.710565 0.139065 0.000002 0.000002 -0.000002 -0.000676 9.278124 -0.000000 -0.000000 -0.000000 8.207792 -6.751703 -1.599550 -52.621266 1.530649 8.370891 54.214172 -2.389594 4.183398 9.413397 -0.004569 -3.921030 -0.000005 -8.728665 10.710567 -3.374742 0.000002 -0.000003 -0.000004 -0.000678 9.278147 0.000004 0.000000 -0.000000 
-0.169443 79.248207 0.803652 -12.018870 -1.872346 -3.368678 -0.000005 10.181584 0.131521 19.363491 0.106207 1.512801 -0.000000 9.893975 -1.470713 6.935522 -0.097614 0.585165 6.935371 -0.099440 0.587131 0.000001 16.740423 -2.049037 0.276471 -0.057162 3.073957 -0.000002 9.617910 1.685009 -1.166585 5.901345 -9.212259 0.000003 22.037323 7.501110 0.000000 -0.000000 0.000001 -4.569969 11.014927 -2.160885 0.150073 9.606694 9.557540 -26.815830 23.421692 69.933200 -27.841524 0.000017 -0.000002 0.000016 46.008895 -0.000014 -28.328833 0.000003 0.000022 39.525680 -0.145296 -39.376099 -2.464796 -1.573971 2.681850 4.724119 2.845728 3.393377 -3.215207 -1.872765 1.924278 18.380509 -15.144426 5.492721 -2.654832 -1.527983 1.512607 -5.316502 -1.600793 -3.676887 0.000001 -0.000003 0.000004 -9.108265 -0.517852 2.259837 0.630482 -3.004934 31.880830 0.265795 -1.889067 15.948205 0.004846 -0.270440 2.136529 0.000003 0.000002 -0.000002 -9.532516 -0.000012 -0.000021 0.982609 -4.278989 16.702736 0.800108 -3.186276 28.038109 0.025943 0.561370 -4.915253 -0.000002 -0.000001 0.000002 -9.103599 -0.043062 -1.865132 0.969600 -4.344078 15.956953 0.238987 -1.828800 14.974225 0.003737 0.236818 -2.049420 -0.000001 -0.000001 0.000001 -8.076674 -0.486701 -3.806275 2.480257 -10.256109 14.376199 0.040966 -0.830843 7.624708 -0.000696 -0.162380 0.865463 0.000001 0.000002 0.000002 4.570449 11.014733 -2.160856 0.592343 -2.753867 -10.306796 -34.006474 -25.016864 -70.991525 -0.000071 -33.271108 -0.000026 28.328840 -0.000035 0.000020 41.842296 -9.421070 48.920991 2.466136 -1.576216 2.681737 2.715573 3.713840 2.491107 3.217800 -1.872073 1.916487 5.422194 7.556509 -3.402826 2.656024 -1.528807 1.514506 0.967449 17.846419 -3.373883 2.020903 -1.154088 1.115139 0.000004 0.000002 -0.000006 9.109295 -0.518046 2.259871 -1.621935 -4.343871 -17.243089 1.144667 3.811766 -33.402658 0.003025 -0.211268 1.687850 -0.000000 0.000004 0.000002 9.533409 0.000003 0.000043 -0.391944 -1.733895 -9.770738 1.067230 3.690747 -32.285307 0.066181 -0.953019 7.943105 0.000001 -0.000001 0.000002 9.104516 -0.043043 -1.865075 0.280023 2.046631 -11.909016 0.312347 2.053408 -17.284072 0.066254 -0.955427 7.943112 2.644316 0.000014 0.000057 0.000001 0.000000 0.000001 8.077775 -0.486876 -3.806252 1.858120 11.348133 -9.243045 0.295228 -2.281517 -15.642525 0.010092 0.214649 -1.843573 -0.000002 -0.000000 -0.000001 -8.207787 -6.751664 -1.599567 -50.930241 -2.741239 -8.137843 54.152789 3.564130 0.308695 6.757219 -0.033983 4.398862 -0.000003 -8.728670 10.710565 0.161218 0.000004 0.000002 -0.000002 -0.000676 9.278122 -0.000000 -0.000000 -0.000000 8.207791 -6.751702 -1.599561 -52.621321 1.519641 8.379484 54.229615 -2.392618 4.188246 9.408914 -0.004477 -3.920527 -0.000004 -8.728668 10.710560 -3.376156 -0.000004 -0.000004 -0.000002 -0.000678 9.278141 0.000004 0.000000 -0.000000 
-0.163864 79.244644 0.803724 -12.028707 -1.867748 -3.387457 -0.000005 10.181573 0.131522 19.351241 0.109481 1.507024 -0.000000 9.893970 -1.470713 6.931039 -0.096154 0.582566 6.930882 -0.097996 0.584517 0.000000 16.740406 -2.049034 0.276168 -0.051346 3.063278 0.000000 9.617892 1.685012 -1.129139 5.917910 -9.224029 0.000003 22.037369 7.501101 0.000000 0.000000 0.000000 -4.569969 11.014929 -2.160883 0.150279 9.606265 9.556078 -26.813835 23.412627 69.930277 -27.841515 0.000017 -0.000005 0.000014 45.958704 -0.000013 -28.328842 0.000013 0.000014 39.548014 -0.136690 -39.307759 -2.464811 -1.573969 2.681852 4.724114 2.845742 3.393386 -3.215209 -1.872767 1.924276 18.380504 -15.144396 5.492721 -2.654828 -1.527985 1.512607 -5.316501 -1.600797 -3.676905 0.000000 -0.000003 -0.000003 -9.108290 -0.517856 2.259832 0.630475 -3.004901 31.880529 0.265777 -1.889044 15.947921 0.004843 -0.270375 2.136240 0.000003 0.000001 -0.000002 -9.532510 -0.000012 -0.000021 0.982595 -4.278961 16.702449 0.800085 -3.186234 28.037802 0.025939 0.561418 -4.915552 0.000000 -0.000002 -0.000002 -9.103599 -0.043072 -1.865132 0.969549 -4.344021 15.956468 0.238977 -1.828749 14.973752 0.003740 0.236888 -2.049890 0.000004 0.000001 0.000001 -8.076694 -0.486701 -3.806286 2.480135 -10.256056 14.375573 0.040965 -0.830765 7.624065 -0.000702 -0.162323 0.864818 0.000003 -0.000001 0.000001 4.570449 11.014716 -2.160854 0.592418 -2.755795 -10.318514 -34.009308 -25.014482 -70.999338 -0.000038 -33.261543 0.000010 28.328829 -0.000066 0.000000 41.874592 -9.407506 48.892529 2.466135 -1.576216 2.681732 2.715572 3.713837 2.491107 3.217806 -1.872071 1.916488 5.422199 7.556506 -3.402825 2.656023 -1.528795 1.514506 0.967443 17.846415 -3.373886 2.020895 -1.154076 1.115136 -0.000004 -0.000002 -0.000006 9.109310 -0.518067 2.259867 -1.621935 -4.343871 -17.243089 1.144660 3.811765 -33.402658 0.003026 -0.211268 1.687851 0.000001 -0.000000 0.000004 9.533415 0.000004 0.000043 -0.391942 -1.733896 -9.770738 1.067228 3.690747 -32.285304 0.066181 -0.953019 7.943101 0.000002 -0.000000 0.000003 9.104531 -0.043058 -1.865078 0.280024 2.046630 -11.909016 0.312354 2.053409 -17.284072 0.066256 -0.955428 7.943113 2.644318 0.000015 0.000054 -0.000000 0.000000 -0.000000 8.077782 -0.486892 -3.806255 1.858122 11.348133 -9.243047 0.295231 -2.281517 -15.642532 0.010089 0.214650 -1.843575 -0.000005 -0.000001 0.000001 -8.207787 -6.751676 -1.599566 -50.917728 -2.747000 -8.130934 54.151236 3.571564 0.313333 6.763877 -0.032599 4.406342 -0.000004 -8.728670 10.710564 0.178180 -0.000004 -0.000003 -0.000000 -0.000676 9.278124 0.000000 -0.000001 -0.000000 8.207790 -6.751702 -1.599548 -52.622223 1.508698 8.386521 54.245212 -2.395366 4.193171 9.405523 -0.004587 -3.921379 -0.000005 -8.728674 10.710554 -3.377897 -0.000001 0.000001 -0.000003 -0.000677 9.278131 0.000003 0.000000 -0.000000 
